<svg version="1.0" xmlns="http://www.w3.org/2000/svg" width="682.667" height="682.667" viewBox="0 0 512 512"><path d="M95.7 1.1C81.7 4.4 70.8 16.1 68 31c-1.5 7.6-1.4 359.6.1 367.5 1.9 10.4 6.9 18.2 15.2 23.9 9.4 6.5 10.4 6.6 57.7 6.6h42.5l8.8-8.8 8.9-8.9-3.2-1.3c-1.7-.7-5.6-2.8-8.7-4.6l-5.5-3.4h-41.5c-26.5 0-42.1-.4-43.4-1-5.2-2.8-4.9 7.3-4.9-186.5 0-130.3.3-180.2 1.1-181.8.6-1.2 2.1-3 3.3-3.9 2-1.6 10.9-1.8 140.3-1.8h138.2l2.8 2.4 2.8 2.4.5 94.3.5 94.2 3.8 1.3c8.6 3 18.9 13.4 20.4 20.7.3 1.5 1 3 1.5 3.3.5.3.7-44.3.6-108.3-.3-87.9-.6-109.5-1.7-112.4-2.4-6.3-8.6-14.2-14.2-18.1C383.3-.4 392.2 0 238 .1c-76.4.1-140.2.5-142.3 1z"/><path d="M137.4 87c-6.7 2.7-9.5 12.2-5.3 18.1 4.4 6.2-1.6 5.9 106.1 5.9 93.3 0 98.5-.1 101.7-1.8 3.5-1.9 7.1-7.2 7.1-10.5 0-3.6-3-8.7-6.2-10.7-3.3-2-4.7-2-102.3-1.9-54.5 0-99.9.4-101.1.9zm-.9 64.9c-4.3 2.6-6.5 6.3-6.5 11.1 0 3.2.7 4.8 3.4 7.8l3.4 3.7 100.1.3c110.7.3 104 .6 108.1-6.1 1.1-1.8 2-4.3 2-5.7 0-3.9-3.3-9.2-7.1-11.2-3.2-1.7-8.4-1.8-101.9-1.8-94.2 0-98.6.1-101.5 1.9zm171.1 66.8c-2.1.3-6.2 3.7-14 11.2-6.1 6-12.1 11.3-13.3 12-3.1 1.6-9.2 1.4-22.3-.9-8.7-1.5-12.3-1.7-15.1-1-4.5 1.2-9.6 6.7-10.3 11.2-.3 1.8-1.5 8.7-2.5 15.2-1.3 7.7-2.6 12.8-3.9 14.5-1.1 1.5-7.2 5.2-14.3 8.8-15.4 7.7-18.9 11-18.9 18.4 0 4.3 1 6.9 6.5 17.5 4.8 9.3 6.5 13.5 6.5 16.4 0 3-1.8 7.5-6.5 17-10.6 21.1-9.5 24.6 10.7 35 7 3.6 13.4 7.1 14.3 7.9 3 2.6 4.2 6.5 6 18.6 2.6 18 5.3 22.8 13.7 24.1 1.9.3 9.6-.4 17.1-1.6 18-2.8 18.1-2.8 31.8 11.1 8.5 8.6 11.4 10.9 14.3 11.4 7.6 1.5 10.1.1 21.5-11.4 13.7-13.9 13.8-14 32.1-11.1 7.9 1.3 15.4 2 17.4 1.6 7.9-1.5 10.5-6.3 13.2-24.6.9-6.3 2.3-12.7 3-14.2 2-3.8 6.2-6.8 19.2-13.2 18.1-9.1 19.1-12.9 8.7-33.6-4.7-9.4-6.5-14.1-6.5-16.9 0-2.9 1.7-7.3 6.5-16.6 5.3-10.3 6.5-13.6 6.5-17.3 0-7.7-2.1-9.8-18.1-18.2-16.9-8.9-17-9-19.4-26-2.1-14.8-2.9-17.3-7-20.9-4.8-4.2-7.7-4.5-21.2-2.1-13.7 2.3-18.5 2.5-21.6.9-1.2-.7-7.2-6.1-13.4-12-6.6-6.5-12-10.9-13.1-10.9-1.1 0-2.6-.2-3.4-.3-.7-.2-2.6-.2-4.2 0zm27.9 36.8c49 14.4 75.6 66.9 58.1 115-4.3 12-10.5 21.4-20.6 31.5-11.1 11.1-21.2 17.3-36 22.1-16.2 5.2-37.5 5.1-53.3-.3-28.1-9.6-47.7-29.7-57.3-58.8-2.6-7.9-2.8-9.7-2.8-24.5 0-14.6.2-16.8 2.8-25 10-32.8 36.5-56.4 70.3-62.5 2.6-.5 10.4-.7 17.3-.5 9.8.3 14.4.9 21.5 3z"/><path d="M294.5 266.5c-28 6.1-51.1 29.4-57.1 57.7-2.2 10.2-1.4 28.9 1.6 37.8 7.1 21 20.3 36.2 39.5 45.5 11 5.3 20.5 7.5 32.5 7.5s21.5-2.2 32.5-7.5c19.2-9.3 32.4-24.5 39.5-45.5 3-8.9 3.8-27.6 1.6-37.8-6-28.5-29.2-51.8-57.5-57.8-8.2-1.7-24.6-1.7-32.6.1zm-95.5 176c-18.7 18.7-21.3 21.7-21.3 24.5 0 5.5 2.7 7 18 9.9l13.8 2.6 2.7 14c2.4 11.9 3.2 14.3 5.4 16.2 5.3 4.7 5.6 4.5 35.6-25.4 15.3-15.3 27.7-28.2 27.5-28.7-.2-.5-1.5-1.9-3-2.9-2.6-2-2.6-2-16.7.3-12.1 2-14.8 2.1-19.4 1.1-11.1-2.5-17.5-10.6-19.7-25.1-.6-4.1-1.2-7.6-1.3-7.7-.1-.1-9.8 9.4-21.6 21.2zm201.1-13.9c-2 14.4-8.4 22.7-19.3 25.6-4.1 1-6.7.9-19.3-1.1-14.6-2.4-14.7-2.4-17.3-.4-1.4 1-2.7 2.4-2.9 2.9-.2.5 12.2 13.4 27.5 28.7 30 29.9 30.3 30.1 35.7 25.4 2.2-1.9 2.9-4.3 5.3-16.2l2.7-14 13.9-2.6c12.2-2.3 14.3-3 16.3-5.3 1.3-1.5 2.3-3.7 2.3-4.9 0-1.4-7-9.1-21.9-24l-21.8-22-1.2 7.9z"/></svg>